<svg width="301" height="69" viewBox="0 0 301 69" fill="none" xmlns="http://www.w3.org/2000/svg">
<path d="M8.30113 12.0932L1.59337 36.3033L3.88718 36.8722L9.74826 14.6869L13.4741 15.8549L13.797 13.9271L8.30113 12.0932Z" fill="#052E16"/>
<path d="M13.2889 31.9887L38.8835 40.0886V9.89694L17.8396 1.73731L13.2889 31.9887Z" fill="#FCD34D"/>
<path d="M72.0732 12.0932L78.781 36.3033L76.4872 36.8722L70.6261 14.6869L66.9002 15.8549L66.5774 13.9271L72.0732 12.0932Z" fill="#052E16"/>
<path d="M67.0854 31.9887L41.4909 40.0886V9.89694L62.5347 1.73731L67.0854 31.9887Z" fill="#FCD34D"/>
<path fill-rule="evenodd" clip-rule="evenodd" d="M10.4679 33.8044L38.6162 42.5316H41.7582L69.9064 33.8044L66.9002 15.8549L66.5774 13.9271L64.6233 2.25942L62.4564 0.634705L41.4909 8.82501H38.8835L17.918 0.634705L15.7511 2.25942L13.797 13.9271L13.4741 15.8549L10.4679 33.8044ZM13.2889 31.9887L38.8835 40.0886V9.89694L17.8396 1.73731L13.2889 31.9887ZM67.0854 31.9887L41.4909 40.0886V9.89694L62.5347 1.73731L67.0854 31.9887Z" fill="#052E16"/>
<path d="M0.593018 39.9138L40.1872 49.8182L79.7813 39.9138L78.781 36.3033L76.4872 36.8722L40.1872 45.8755L3.88718 36.8722L1.59337 36.3033L0.593018 39.9138Z" fill="#052E16"/>
<path d="M40.1872 52.9684L27.9358 49.8914V56.4833L17.6811 64.1567V68.7358L36.0212 60.8848H40.1872H44.3532L62.6933 68.7358V64.1567L52.4386 56.4833V49.8914L40.1872 52.9684Z" fill="#052E16"/>
<path d="M38.6162 42.5316L10.4679 33.8044L13.4741 15.8549L9.74826 14.6869L3.88718 36.8722L40.1872 45.8755L76.4872 36.8722L70.6261 14.6869L66.9002 15.8549L69.9064 33.8044L41.7582 42.5316H38.6162Z" fill="#F9FAFB"/>
<path d="M148.17 28.8132L155.773 11.7572H159.671L167.297 28.8132H163.155L156.918 13.7552H158.477L152.215 28.8132H148.17ZM151.971 25.1583L153.019 22.1614H161.791L162.863 25.1583H151.971Z" fill="#052E16"/>
<path d="M168.799 28.8132V10.7339H172.6V28.8132H168.799Z" fill="#052E16"/>
<path d="M179.929 24.9147L179.709 20.3583L187.872 11.7572H192.258L184.899 19.6761L182.706 22.0152L179.929 24.9147ZM176.396 28.8132V11.7572H180.319V28.8132H176.396ZM188.067 28.8132L182 21.3816L184.583 18.5796L192.672 28.8132H188.067Z" fill="#052E16"/>
<path d="M201.919 28.8132V26.2548L201.675 25.6944V21.1136C201.675 20.3014 201.424 19.6679 200.92 19.2131C200.433 18.7583 199.677 18.5309 198.654 18.5309C197.956 18.5309 197.265 18.6446 196.583 18.872C195.917 19.0832 195.349 19.3755 194.877 19.7492L193.513 17.0933C194.228 16.5897 195.089 16.1999 196.096 15.9237C197.103 15.6476 198.126 15.5095 199.166 15.5095C201.164 15.5095 202.715 15.9806 203.82 16.9227C204.924 17.8649 205.477 19.3349 205.477 21.3329V28.8132H201.919ZM197.923 29.0081C196.9 29.0081 196.023 28.8375 195.292 28.4964C194.561 28.1391 194 27.6599 193.61 27.0588C193.221 26.4578 193.026 25.7837 193.026 25.0365C193.026 24.2568 193.212 23.5746 193.586 22.9898C193.976 22.405 194.585 21.9502 195.414 21.6253C196.242 21.2842 197.322 21.1136 198.654 21.1136H202.138V23.3309H199.068C198.175 23.3309 197.558 23.4771 197.217 23.7695C196.892 24.0619 196.729 24.4274 196.729 24.8659C196.729 25.3532 196.916 25.7431 197.29 26.0355C197.68 26.3116 198.207 26.4497 198.873 26.4497C199.507 26.4497 200.075 26.3035 200.579 26.0111C201.083 25.7025 201.448 25.2558 201.675 24.671L202.26 26.4253C201.984 27.27 201.481 27.9116 200.75 28.3502C200.019 28.7888 199.076 29.0081 197.923 29.0081Z" fill="#052E16"/>
<path d="M216.884 15.5095C217.924 15.5095 218.85 15.7207 219.662 16.143C220.49 16.5491 221.14 17.1826 221.611 18.0436C222.082 18.8882 222.318 19.9766 222.318 21.3086V28.8132H218.517V21.8933C218.517 20.8375 218.281 20.0578 217.81 19.5542C217.355 19.0507 216.706 18.7989 215.861 18.7989C215.26 18.7989 214.716 18.9288 214.228 19.1887C213.757 19.4324 213.384 19.8141 213.108 20.3339C212.848 20.8537 212.718 21.5197 212.718 22.3319V28.8132H208.917V10.7339H212.718V19.3349L211.865 18.2385C212.336 17.3613 213.01 16.6872 213.887 16.2161C214.764 15.7451 215.763 15.5095 216.884 15.5095Z" fill="#052E16"/>
<path d="M233.804 28.8132V26.2548L233.56 25.6944V21.1136C233.56 20.3014 233.308 19.6679 232.805 19.2131C232.318 18.7583 231.562 18.5309 230.539 18.5309C229.84 18.5309 229.15 18.6446 228.468 18.872C227.802 19.0832 227.233 19.3755 226.762 19.7492L225.398 17.0933C226.112 16.5897 226.973 16.1999 227.98 15.9237C228.988 15.6476 230.011 15.5095 231.051 15.5095C233.049 15.5095 234.6 15.9806 235.704 16.9227C236.809 17.8649 237.361 19.3349 237.361 21.3329V28.8132H233.804ZM229.808 29.0081C228.785 29.0081 227.907 28.8375 227.176 28.4964C226.445 28.1391 225.885 27.6599 225.495 27.0588C225.105 26.4578 224.91 25.7837 224.91 25.0365C224.91 24.2568 225.097 23.5746 225.471 22.9898C225.861 22.405 226.47 21.9502 227.298 21.6253C228.127 21.2842 229.207 21.1136 230.539 21.1136H234.023V23.3309H230.953C230.06 23.3309 229.442 23.4771 229.101 23.7695C228.776 24.0619 228.614 24.4274 228.614 24.8659C228.614 25.3532 228.801 25.7431 229.174 26.0355C229.564 26.3116 230.092 26.4497 230.758 26.4497C231.392 26.4497 231.96 26.3035 232.464 26.0111C232.967 25.7025 233.333 25.2558 233.56 24.671L234.145 26.4253C233.869 27.27 233.365 27.9116 232.634 28.3502C231.903 28.7888 230.961 29.0081 229.808 29.0081Z" fill="#052E16"/>
<path d="M241.264 28.8132V15.4121C241.264 13.9339 241.703 12.7562 242.58 11.8791C243.457 10.9856 244.708 10.5389 246.332 10.5389C246.885 10.5389 247.413 10.5958 247.916 10.7095C248.436 10.8232 248.875 11.0019 249.232 11.2455L248.233 13.9989C248.022 13.8527 247.786 13.739 247.526 13.6577C247.266 13.5765 246.99 13.5359 246.698 13.5359C246.146 13.5359 245.715 13.6984 245.406 14.0232C245.114 14.3319 244.968 14.8029 244.968 15.4364V16.6547L245.065 18.2872V28.8132H241.264ZM239.242 18.9207V15.9968H248.33V18.9207H239.242Z" fill="#052E16"/>
<path d="M106.072 58.8316C104.756 58.8316 103.53 58.6205 102.393 58.1981C101.272 57.7595 100.297 57.1423 99.4688 56.3463C98.6403 55.5504 97.9906 54.6164 97.5195 53.5443C97.0647 52.4722 96.8373 51.2945 96.8373 50.0113C96.8373 48.728 97.0647 47.5503 97.5195 46.4783C97.9906 45.4062 98.6403 44.4721 99.4688 43.6762C100.313 42.8803 101.296 42.2711 102.417 41.8488C103.538 41.4102 104.764 41.1909 106.096 41.1909C107.574 41.1909 108.906 41.4508 110.092 41.9706C111.294 42.4742 112.301 43.2214 113.114 44.2123L110.58 46.5514C109.995 45.8854 109.345 45.3899 108.63 45.065C107.916 44.7239 107.136 44.5534 106.291 44.5534C105.495 44.5534 104.764 44.6833 104.098 44.9432C103.432 45.2031 102.856 45.5767 102.368 46.064C101.881 46.5514 101.499 47.128 101.223 47.794C100.963 48.46 100.833 49.1991 100.833 50.0113C100.833 50.8235 100.963 51.5626 101.223 52.2285C101.499 52.8945 101.881 53.4712 102.368 53.9585C102.856 54.4458 103.432 54.8194 104.098 55.0793C104.764 55.3392 105.495 55.4692 106.291 55.4692C107.136 55.4692 107.916 55.3067 108.63 54.9819C109.345 54.6407 109.995 54.1291 110.58 53.4468L113.114 55.7859C112.301 56.7768 111.294 57.5321 110.092 58.0519C108.906 58.5717 107.566 58.8316 106.072 58.8316Z" fill="#052E16"/>
<path d="M123.479 45.2356C124.518 45.2356 125.444 45.4468 126.256 45.8691C127.085 46.2752 127.734 46.9087 128.206 47.7696C128.677 48.6143 128.912 49.7026 128.912 51.0346V58.5392H125.111V51.6194C125.111 50.5636 124.876 49.7839 124.405 49.2803C123.95 48.7767 123.3 48.525 122.455 48.525C121.854 48.525 121.31 48.6549 120.823 48.9148C120.352 49.1585 119.978 49.5402 119.702 50.06C119.442 50.5798 119.312 51.2458 119.312 52.058V58.5392H115.511V40.4599H119.312V49.061L118.459 47.9646C118.93 47.0874 119.604 46.4133 120.482 45.9422C121.359 45.4711 122.358 45.2356 123.479 45.2356Z" fill="#052E16"/>
<path d="M140.398 58.5392V55.9809L140.155 55.4204V50.8397C140.155 50.0275 139.903 49.394 139.399 48.9392C138.912 48.4844 138.157 48.2569 137.133 48.2569C136.435 48.2569 135.744 48.3707 135.062 48.5981C134.396 48.8092 133.828 49.1016 133.357 49.4752L131.992 46.8194C132.707 46.3158 133.568 45.926 134.575 45.6498C135.582 45.3737 136.605 45.2356 137.645 45.2356C139.643 45.2356 141.194 45.7067 142.299 46.6488C143.403 47.591 143.956 49.061 143.956 51.059V58.5392H140.398ZM136.402 58.7342C135.379 58.7342 134.502 58.5636 133.771 58.2225C133.04 57.8651 132.479 57.3859 132.09 56.7849C131.7 56.1839 131.505 55.5098 131.505 54.7626C131.505 53.9829 131.692 53.3006 132.065 52.7159C132.455 52.1311 133.064 51.6763 133.893 51.3514C134.721 51.0103 135.801 50.8397 137.133 50.8397H140.618V53.057H137.548C136.654 53.057 136.037 53.2032 135.696 53.4956C135.371 53.7879 135.208 54.1534 135.208 54.592C135.208 55.0793 135.395 55.4692 135.769 55.7616C136.159 56.0377 136.687 56.1758 137.353 56.1758C137.986 56.1758 138.555 56.0296 139.058 55.7372C139.562 55.4286 139.927 54.9819 140.155 54.3971L140.739 56.1514C140.463 56.9961 139.96 57.6377 139.229 58.0763C138.498 58.5149 137.556 58.7342 136.402 58.7342Z" fill="#052E16"/>
<path d="M147.396 58.5392V45.4305H151.026V49.1341L150.515 48.062C150.904 47.1361 151.53 46.4376 152.391 45.9666C153.252 45.4793 154.299 45.2356 155.534 45.2356V48.7443C155.371 48.728 155.225 48.7199 155.095 48.7199C154.965 48.7036 154.827 48.6955 154.681 48.6955C153.642 48.6955 152.797 48.996 152.147 49.5971C151.514 50.1818 151.197 51.0996 151.197 52.3504V58.5392H147.396Z" fill="#052E16"/>
<path d="M157.818 58.5392V45.4305H161.619V58.5392H157.818ZM159.718 43.6031C159.02 43.6031 158.451 43.4001 158.013 42.994C157.574 42.5879 157.355 42.0843 157.355 41.4833C157.355 40.8823 157.574 40.3787 158.013 39.9726C158.451 39.5665 159.02 39.3635 159.718 39.3635C160.417 39.3635 160.985 39.5584 161.424 39.9483C161.863 40.3219 162.082 40.8092 162.082 41.4102C162.082 42.0437 161.863 42.5716 161.424 42.994C161.002 43.4001 160.433 43.6031 159.718 43.6031Z" fill="#052E16"/>
<path d="M170.507 58.7342C168.964 58.7342 167.762 58.3443 166.901 57.5646C166.04 56.7687 165.609 55.591 165.609 54.0316V42.531H169.411V53.9829C169.411 54.5352 169.557 54.9656 169.849 55.2743C170.141 55.5666 170.539 55.7128 171.043 55.7128C171.644 55.7128 172.156 55.5504 172.578 55.2255L173.601 57.9057C173.212 58.1819 172.74 58.3931 172.188 58.5392C171.652 58.6692 171.092 58.7342 170.507 58.7342ZM163.587 48.6468V45.7229H172.676V48.6468H163.587Z" fill="#052E16"/>
<path d="M183.776 58.5392V55.9809L183.532 55.4204V50.8397C183.532 50.0275 183.28 49.394 182.777 48.9392C182.289 48.4844 181.534 48.2569 180.511 48.2569C179.812 48.2569 179.122 48.3707 178.44 48.5981C177.774 48.8092 177.205 49.1016 176.734 49.4752L175.37 46.8194C176.084 46.3158 176.945 45.926 177.952 45.6498C178.96 45.3737 179.983 45.2356 181.022 45.2356C183.02 45.2356 184.572 45.7067 185.676 46.6488C186.781 47.591 187.333 49.061 187.333 51.059V58.5392H183.776ZM179.78 58.7342C178.756 58.7342 177.879 58.5636 177.148 58.2225C176.417 57.8651 175.857 57.3859 175.467 56.7849C175.077 56.1839 174.882 55.5098 174.882 54.7626C174.882 53.9829 175.069 53.3006 175.443 52.7159C175.833 52.1311 176.442 51.6763 177.27 51.3514C178.099 51.0103 179.179 50.8397 180.511 50.8397H183.995V53.057H180.925C180.032 53.057 179.414 53.2032 179.073 53.4956C178.748 53.7879 178.586 54.1534 178.586 54.592C178.586 55.0793 178.773 55.4692 179.146 55.7616C179.536 56.0377 180.064 56.1758 180.73 56.1758C181.364 56.1758 181.932 56.0296 182.436 55.7372C182.939 55.4286 183.305 54.9819 183.532 54.3971L184.117 56.1514C183.841 56.9961 183.337 57.6377 182.606 58.0763C181.875 58.5149 180.933 58.7342 179.78 58.7342Z" fill="#052E16"/>
<path d="M198.522 58.7342C197.368 58.7342 196.377 58.4905 195.549 58.0032C194.721 57.5159 194.087 56.7768 193.648 55.7859C193.21 54.7788 192.991 53.5118 192.991 51.9849C192.991 50.4417 193.218 49.1747 193.673 48.1838C194.144 47.193 194.794 46.4539 195.622 45.9666C196.45 45.4793 197.417 45.2356 198.522 45.2356C199.756 45.2356 200.861 45.5118 201.835 46.064C202.826 46.6163 203.606 47.396 204.174 48.4031C204.759 49.4103 205.052 50.6042 205.052 51.9849C205.052 53.3494 204.759 54.5352 204.174 55.5423C203.606 56.5494 202.826 57.3372 201.835 57.9057C200.861 58.458 199.756 58.7342 198.522 58.7342ZM190.773 58.5392V40.4599H194.574V48.0864L194.331 51.9605L194.404 55.859V58.5392H190.773ZM197.864 55.6154C198.497 55.6154 199.058 55.4692 199.545 55.1768C200.048 54.8844 200.446 54.4702 200.739 53.9341C201.047 53.3819 201.202 52.7321 201.202 51.9849C201.202 51.2214 201.047 50.5717 200.739 50.0356C200.446 49.4996 200.048 49.0854 199.545 48.793C199.058 48.5006 198.497 48.3544 197.864 48.3544C197.23 48.3544 196.662 48.5006 196.158 48.793C195.655 49.0854 195.257 49.4996 194.964 50.0356C194.672 50.5717 194.526 51.2214 194.526 51.9849C194.526 52.7321 194.672 53.3819 194.964 53.9341C195.257 54.4702 195.655 54.8844 196.158 55.1768C196.662 55.4692 197.23 55.6154 197.864 55.6154Z" fill="#052E16"/>
<path d="M207.596 58.5392V40.4599H211.397V58.5392H207.596Z" fill="#052E16"/>
<path d="M221.43 58.7342C219.936 58.7342 218.62 58.4418 217.483 57.857C216.362 57.2722 215.493 56.4763 214.876 55.4692C214.259 54.4458 213.95 53.2844 213.95 51.9849C213.95 50.6691 214.251 49.5077 214.852 48.5006C215.469 47.4772 216.305 46.6813 217.361 46.1128C218.417 45.528 219.611 45.2356 220.943 45.2356C222.226 45.2356 223.38 45.5118 224.403 46.064C225.443 46.6001 226.263 47.3798 226.864 48.4031C227.465 49.4103 227.765 50.6204 227.765 52.0336C227.765 52.1798 227.757 52.3504 227.741 52.5453C227.725 52.724 227.709 52.8945 227.692 53.057H217.045V50.8397H225.694L224.232 51.4976C224.232 50.8153 224.094 50.2224 223.818 49.7189C223.542 49.2153 223.16 48.8255 222.673 48.5493C222.186 48.2569 221.617 48.1108 220.967 48.1108C220.318 48.1108 219.741 48.2569 219.237 48.5493C218.75 48.8255 218.368 49.2235 218.092 49.7433C217.816 50.2468 217.678 50.8478 217.678 51.5463V52.1311C217.678 52.8458 217.832 53.4793 218.141 54.0316C218.466 54.5676 218.913 54.9819 219.481 55.2743C220.066 55.5504 220.748 55.6885 221.528 55.6885C222.226 55.6885 222.835 55.5829 223.355 55.3717C223.891 55.1605 224.379 54.8438 224.817 54.4215L226.84 56.6144C226.239 57.2966 225.483 57.8245 224.574 58.1981C223.664 58.5555 222.616 58.7342 221.43 58.7342Z" fill="#052E16"/>
<path d="M240.998 58.5392V44.6996H235.54V41.4833H250.403V44.6996H244.945V58.5392H240.998Z" fill="#052E16"/>
<path d="M251.973 58.5392V45.4305H255.603V49.1341L255.092 48.062C255.482 47.1361 256.107 46.4376 256.968 45.9666C257.829 45.4793 258.877 45.2356 260.111 45.2356V48.7443C259.949 48.728 259.802 48.7199 259.672 48.7199C259.543 48.7036 259.404 48.6955 259.258 48.6955C258.219 48.6955 257.374 48.996 256.724 49.5971C256.091 50.1818 255.774 51.0996 255.774 52.3504V58.5392H251.973Z" fill="#052E16"/>
<path d="M267.997 58.7342C266.909 58.7342 265.934 58.523 265.073 58.1007C264.229 57.6783 263.571 57.0367 263.1 56.1758C262.629 55.2986 262.393 54.1859 262.393 52.8377V45.4305H266.194V52.2773C266.194 53.3656 266.422 54.1697 266.876 54.6895C267.348 55.193 268.005 55.4448 268.85 55.4448C269.435 55.4448 269.955 55.323 270.41 55.0793C270.864 54.8194 271.222 54.4296 271.482 53.9098C271.741 53.3737 271.871 52.7077 271.871 51.9118V45.4305H275.672V58.5392H272.066V54.9331L272.724 55.9809C272.286 56.8905 271.636 57.5809 270.775 58.0519C269.93 58.5068 269.004 58.7342 267.997 58.7342Z" fill="#052E16"/>
<path d="M283.604 58.7342C282.483 58.7342 281.403 58.6042 280.363 58.3443C279.34 58.0682 278.528 57.7271 277.927 57.321L279.194 54.592C279.795 54.9656 280.502 55.2743 281.314 55.5179C282.142 55.7453 282.954 55.859 283.75 55.859C284.627 55.859 285.245 55.7534 285.602 55.5423C285.976 55.3311 286.162 55.0387 286.162 54.6651C286.162 54.3565 286.016 54.1291 285.724 53.9829C285.448 53.8204 285.074 53.6986 284.603 53.6174C284.132 53.5362 283.612 53.4549 283.044 53.3737C282.491 53.2925 281.931 53.1869 281.362 53.057C280.794 52.9108 280.274 52.6996 279.803 52.4235C279.332 52.1473 278.95 51.7737 278.658 51.3027C278.382 50.8316 278.244 50.2224 278.244 49.4752C278.244 48.6468 278.479 47.9158 278.95 47.2823C279.438 46.6488 280.136 46.1534 281.046 45.796C281.955 45.4224 283.044 45.2356 284.311 45.2356C285.204 45.2356 286.114 45.3331 287.04 45.528C287.966 45.7229 288.737 46.0072 289.354 46.3808L288.087 49.0854C287.454 48.7118 286.812 48.46 286.162 48.33C285.529 48.1839 284.912 48.1108 284.311 48.1108C283.466 48.1108 282.849 48.2245 282.459 48.4519C282.069 48.6793 281.874 48.9717 281.874 49.329C281.874 49.6539 282.012 49.8976 282.288 50.06C282.581 50.2224 282.962 50.3524 283.434 50.4499C283.905 50.5473 284.416 50.6367 284.969 50.7179C285.537 50.7829 286.106 50.8884 286.674 51.0346C287.243 51.1808 287.754 51.392 288.209 51.6681C288.68 51.928 289.062 52.2935 289.354 52.7646C289.647 53.2194 289.793 53.8204 289.793 54.5676C289.793 55.3798 289.549 56.1027 289.062 56.7362C288.575 57.3535 287.868 57.8408 286.942 58.1981C286.033 58.5555 284.92 58.7342 283.604 58.7342Z" fill="#052E16"/>
<path d="M297.499 58.7342C295.955 58.7342 294.753 58.3443 293.892 57.5646C293.032 56.7687 292.601 55.591 292.601 54.0316V42.531H296.402V53.9829C296.402 54.5352 296.548 54.9656 296.841 55.2743C297.133 55.5666 297.531 55.7128 298.035 55.7128C298.636 55.7128 299.147 55.5504 299.57 55.2255L300.593 57.9057C300.203 58.1819 299.732 58.3931 299.18 58.5392C298.644 58.6692 298.083 58.7342 297.499 58.7342ZM290.579 48.6468V45.7229H299.667V48.6468H290.579Z" fill="#052E16"/>
</svg>
