<svg width="57" height="57" viewBox="0 0 57 57" fill="none" xmlns="http://www.w3.org/2000/svg">
<path d="M47.0499 41.2853C47.9488 41.2858 48.813 41.632 49.4635 42.2523C50.114 42.8726 50.501 43.7193 50.5442 44.6171C50.5874 45.5149 50.2835 46.3949 49.6955 47.0748C49.1076 47.7547 48.2806 48.1823 47.3859 48.269L47.0499 48.2853H9.71661C8.81777 48.2849 7.95356 47.9386 7.30304 47.3184C6.65253 46.6981 6.26559 45.8513 6.22239 44.9535C6.1792 44.0557 6.48306 43.1757 7.07102 42.4959C7.65898 41.816 8.48597 41.3884 9.38061 41.3017L9.71661 41.2853H47.0499ZM47.0499 24.952C47.9782 24.952 48.8684 25.3207 49.5248 25.9771C50.1812 26.6335 50.5499 27.5237 50.5499 28.452C50.5499 29.3802 50.1812 30.2705 49.5248 30.9269C48.8684 31.5832 47.9782 31.952 47.0499 31.952H9.71661C8.78836 31.952 7.89812 31.5832 7.24174 30.9269C6.58536 30.2705 6.21661 29.3802 6.21661 28.452C6.21661 27.5237 6.58536 26.6335 7.24174 25.9771C7.89812 25.3207 8.78836 24.952 9.71661 24.952H47.0499ZM47.0499 8.61865C47.9782 8.61865 48.8684 8.9874 49.5248 9.64378C50.1812 10.3002 50.5499 11.1904 50.5499 12.1187C50.5499 13.0469 50.1812 13.9371 49.5248 14.5935C48.8684 15.2499 47.9782 15.6187 47.0499 15.6187H9.71661C8.78836 15.6187 7.89812 15.2499 7.24174 14.5935C6.58536 13.9371 6.21661 13.0469 6.21661 12.1187C6.21661 11.1904 6.58536 10.3002 7.24174 9.64378C7.89812 8.9874 8.78836 8.61865 9.71661 8.61865H47.0499Z" fill="#052E16"/>
</svg>
