<svg width="57" height="57" viewBox="0 0 57 57" fill="none" xmlns="http://www.w3.org/2000/svg">
<path d="M28.6702 4.48987C15.0202 4.48987 4.17017 15.3399 4.17017 28.9899C4.17017 42.6399 15.0202 53.4899 28.6702 53.4899C42.3202 53.4899 53.1702 42.6399 53.1702 28.9899C53.1702 15.3399 42.3202 4.48987 28.6702 4.48987ZM28.6702 49.9899C17.1202 49.9899 7.67017 40.5399 7.67017 28.9899C7.67017 17.4399 17.1202 7.98987 28.6702 7.98987C40.2202 7.98987 49.6702 17.4399 49.6702 28.9899C49.6702 40.5399 40.2202 49.9899 28.6702 49.9899Z" fill="#052E16"/>
<path d="M38.1202 41.2399L28.6702 31.7899L19.2202 41.2399L16.4202 38.4399L25.8702 28.9899L16.4202 19.5399L19.2202 16.7399L28.6702 26.1899L38.1202 16.7399L40.9202 19.5399L31.4702 28.9899L40.9202 38.4399L38.1202 41.2399Z" fill="#052E16"/>
</svg>
